<?xml version="1.0" encoding="utf-8"?>
<!-- Generator: Adobe Illustrator 23.0.3, SVG Export Plug-In . SVG Version: 6.00 Build 0)  -->
<svg version="1.1" xmlns="http://www.w3.org/2000/svg" xmlns:xlink="http://www.w3.org/1999/xlink" x="0px" y="0px"
	 viewBox="0 0 6026 2626.9" style="enable-background:new 0 0 6026 2626.9;" xml:space="preserve">
<style type="text/css">
	.st0{fill:#B8817D;}
	.st1{fill:#FFFFFF;}
	.st2{fill:none;}
	.st3{font-family:'Heinberg-Regular';}
	.st4{font-size:700px;}
</style>
<g id="Layer_3">
	<circle class="st0" cx="1313.4" cy="1313.4" r="1313.4"/>
</g>
<g id="Layer_2">
	<path class="st1" d="M890.6,548.4c8.8,18.9-12.8,170.6,53.6,195.5c9.9,3.7,29.7,11.2,49.4,3.2c23.1-9.4,32.6-33.8,36.4-43.7
		c41.8-107.8-17.6-259.2-20.2-265.6c-18.1-43.9-23.8-42.2-30-69.6c-17.3-76.6,14-148.2,30-184.6c13.3-30.4,28.2-55,41.3-73.7
		c-4.9,54.1-3.9,133,32.4,213.8c48.3,107.6,107.9,97.4,151.4,202.4c46.9,113.4,21.1,227.8,78.9,248.8c8.2,3,15.6,3.2,19.8,3
		c6-2.6,14.9-7.2,22.7-15.8c22.1-24.2,14.8-56.4,19.4-82.6c4.4-24.5,21.7-57.4,80.8-91.1c-2.6,3.7-40,58-15.2,119
		c19.8,48.7,64.5,66,72.1,68.8c16,5.9,37.3,16.1,52.6,6.5c16.1-10.1,17.1-36.4,15.7-63c-4.6-84.6-31.7-125.8-40-172
		c-7-39.2-3.6-99.1,52.2-182.5c-9.8,33.6-30,120.9,13.2,205.2c8.9,17.4,19.3,32.2,29.8,44.7c0,0,31.6,58.7,42.1,55.8
		c3.1-0.9,4.4-5.5,4.9-7.3c17.6-63.6-5.2-134.4-57.1-185c24.9,8.4,123.9,44.9,162.3,140.5c4.7,11.7,19.7,62,6.9,144.1
		c-40.4,259.1-268.8,441.1-510.1,425.1c-210.1-13.9-393.5-175.4-439.7-395.9c-8-36.5-25.5-77.1-19.4-120.8
		C834.2,619.4,891.5,570.4,890.6,548.4z"/>
</g>
<g id="Layer_1">
	<g>
		<path class="st1" d="M63.5,1321.4l735.3,480.1l514.5-429.5L572,914.2L63.5,1321.4z M1313.4,1372l514.5,429.5l735.3-480.1
			l-508.4-407.2L1313.4,1372z"/>
		<path class="st1" d="M1314.9,1464.4l-516,428.2L578,1748.4V1910l736.9,441.9l736.9-441.9v-161.6l-220.8,144.2L1314.9,1464.4z"/>
	</g>
	<rect x="2846.3" y="673.9" class="st2" width="4946" height="1767.8"/>
	<text transform="matrix(1 0 0 1 2846.333 1206.6096)"><tspan x="0" y="0" class="st0 st3 st4">Firebox </tspan><tspan x="0" y="840" class="st0 st3 st4">Services</tspan></text>
</g>
</svg>
